<?xml version="1.0" encoding="utf-8"?>
<!-- Generator: Adobe Illustrator 16.0.0, SVG Export Plug-In . SVG Version: 6.00 Build 0)  -->
<!DOCTYPE svg PUBLIC "-//W3C//DTD SVG 1.0//EN" "http://www.w3.org/TR/2001/REC-SVG-20010904/DTD/svg10.dtd" [
	<!ENTITY ns_extend "http://ns.adobe.com/Extensibility/1.0/">
	<!ENTITY ns_ai "http://ns.adobe.com/AdobeIllustrator/10.0/">
	<!ENTITY ns_graphs "http://ns.adobe.com/Graphs/1.0/">
	<!ENTITY ns_vars "http://ns.adobe.com/Variables/1.0/">
	<!ENTITY ns_imrep "http://ns.adobe.com/ImageReplacement/1.0/">
	<!ENTITY ns_sfw "http://ns.adobe.com/SaveForWeb/1.0/">
	<!ENTITY ns_custom "http://ns.adobe.com/GenericCustomNamespace/1.0/">
	<!ENTITY ns_adobe_xpath "http://ns.adobe.com/XPath/1.0/">
]>
<svg version="1.0" xmlns:x="&ns_extend;" xmlns:i="&ns_ai;" xmlns:graph="&ns_graphs;"
	 xmlns="http://www.w3.org/2000/svg" xmlns:xlink="http://www.w3.org/1999/xlink" x="0px" y="0px" width="19px" height="19px"
	 viewBox="0 0 19 19" enable-background="new 0 0 19 19" xml:space="preserve">
<metadata>
	<sfw  xmlns="&ns_sfw;">
		<slices></slices>
		<sliceSourceBounds  height="17.023" width="49.958" x="256.375" y="-275.674" bottomLeftOrigin="true"></sliceSourceBounds>
		<optimizationSettings>
			<targetSettings  fileFormat="PNG24Format" targetSettingsID="0">
				<PNG24Format  transparency="true" filtered="false" interlaced="false" matteColor="#FFFFFF" noMatteColor="false">
					</PNG24Format>
			</targetSettings>
		</optimizationSettings>
	</sfw>
</metadata>
<g id="credit">
	<g>
		<g>
			<path d="M30.784,4.32V1.462h1.2h0.109c0.322,0,0.542,0.063,0.659,0.187s0.176,0.356,0.176,0.697c0,0.327-0.062,0.549-0.184,0.668
				c-0.122,0.118-0.352,0.178-0.688,0.178l-0.125,0.002h-0.826V4.32H30.784z M31.106,2.921h0.765c0.32,0,0.525-0.033,0.615-0.099
				c0.09-0.065,0.135-0.216,0.135-0.452c0-0.276-0.03-0.451-0.092-0.524c-0.061-0.073-0.205-0.11-0.432-0.11l-0.124-0.002h-0.867
				V2.921z"/>
			<path d="M33.636,1.462V4.32h-0.322V1.462H33.636z"/>
			<path d="M36.357,1.462l-0.912,1.38l0.982,1.478h-0.382l-0.661-1l-0.105-0.157c-0.006-0.008-0.021-0.034-0.048-0.077l-0.051-0.08
				h-0.008l-0.051,0.082c-0.027,0.04-0.045,0.067-0.052,0.08l-0.109,0.159L34.289,4.32h-0.396l1.021-1.478l-0.939-1.38h0.389
				l0.635,0.953l0.089,0.134c0.01,0.017,0.024,0.039,0.043,0.067l0.042,0.067h0.008l0.043-0.065c0.021-0.038,0.035-0.06,0.041-0.067
				l0.087-0.132l0.626-0.957H36.357z"/>
			<g>
				<path d="M39.63,2.82c-0.136-0.105-0.429-0.166-0.895-0.187c-0.494-0.023-0.615-0.07-0.645-0.089
					c-0.018-0.012-0.078-0.073-0.078-0.353c0-0.12,0.019-0.274,0.107-0.328c0.059-0.035,0.212-0.078,0.611-0.078
					c0.347,0,0.457,0.047,0.491,0.075c0.032,0.026,0.085,0.109,0.085,0.376v0.081h0.483V2.237c0-0.363-0.075-0.597-0.227-0.716
					c-0.146-0.114-0.436-0.169-0.886-0.169c-0.442,0-0.735,0.059-0.892,0.18c-0.164,0.126-0.244,0.36-0.244,0.715
					c0,0.51,0.278,0.798,0.804,0.834L39,3.115c0.213,0.013,0.286,0.056,0.311,0.081c0.022,0.023,0.063,0.092,0.063,0.291
					c0,0.328-0.065,0.411-0.095,0.432c-0.039,0.029-0.175,0.078-0.635,0.078c-0.411,0-0.521-0.053-0.55-0.076
					c-0.026-0.021-0.087-0.102-0.087-0.413V3.355h-0.484l0.004,0.209c0,0.345,0.078,0.572,0.235,0.693
					c0.152,0.116,0.438,0.173,0.871,0.173c0.498,0,0.814-0.056,0.969-0.171c0.162-0.121,0.241-0.365,0.241-0.748
					C39.843,3.157,39.772,2.931,39.63,2.82z"/>
				<polygon points="39.953,4.401 41.951,4.401 41.951,3.967 40.438,3.967 40.438,3.061 41.888,3.061 41.888,2.627 40.438,2.627 
					40.438,1.815 41.951,1.815 41.951,1.381 39.953,1.381 				"/>
				<path d="M44.081,3.535c0,0.205-0.036,0.341-0.104,0.384c-0.045,0.029-0.191,0.077-0.667,0.077c-0.478,0-0.6-0.102-0.629-0.162
					c-0.044-0.087-0.094-0.396-0.094-1.375c0-0.42,0.074-0.54,0.12-0.574c0.049-0.037,0.218-0.099,0.795-0.099
					c0.315,0,0.419,0.049,0.452,0.079c0.031,0.028,0.085,0.114,0.085,0.385l0.003,0.167h0.482l-0.004-0.158
					c0-0.351-0.07-0.585-0.217-0.715c-0.143-0.128-0.4-0.19-0.789-0.19c-0.561,0-0.918,0.063-1.098,0.191
					c-0.152,0.112-0.248,0.243-0.281,0.39C42.105,2.068,42.09,2.38,42.09,2.886c0,0.658,0.069,1.068,0.211,1.256
					c0.148,0.193,0.468,0.288,0.978,0.288c0.566,0,0.898-0.051,1.049-0.161c0.156-0.114,0.232-0.374,0.232-0.794v-0.19h-0.484
					L44.081,3.535z"/>
				<polygon points="46.843,1.381 44.504,1.381 44.504,1.842 45.436,1.842 45.436,4.401 45.92,4.401 45.92,1.842 46.843,1.842 				
					"/>
				<path d="M48.094,1.352c-0.491,0-0.82,0.074-1.009,0.227c-0.189,0.154-0.286,0.437-0.286,0.839L46.794,2.89
					c0,0.683,0.072,1.1,0.217,1.274c0.15,0.179,0.504,0.266,1.083,0.266c0.583,0,0.937-0.088,1.084-0.269
					c0.144-0.176,0.213-0.604,0.213-1.31c0-0.656-0.073-1.061-0.223-1.235C49.015,1.438,48.664,1.352,48.094,1.352z M48.092,1.786
					c0.464,0,0.637,0.06,0.698,0.11c0.059,0.047,0.129,0.179,0.129,0.538l0.003,0.456c0,0.774-0.069,0.949-0.099,0.987
					c-0.028,0.036-0.153,0.119-0.731,0.119c-0.576,0-0.701-0.083-0.729-0.119c-0.029-0.039-0.099-0.212-0.099-0.987
					c0-0.773,0.069-0.946,0.099-0.985C47.391,1.869,47.516,1.786,48.092,1.786z"/>
				<path d="M51.656,3.031c0.081-0.041,0.143-0.094,0.185-0.159c0.078-0.119,0.117-0.313,0.117-0.596
					c0-0.321-0.072-0.553-0.214-0.69c-0.143-0.138-0.373-0.205-0.705-0.205h-1.441v3.02h0.483V3.243h1
					c0.164,0,0.354,0.048,0.354,0.419v0.738h0.483V3.589C51.918,3.278,51.802,3.114,51.656,3.031z M51.488,2.356
					c0,0.181-0.035,0.302-0.105,0.36c-0.051,0.042-0.17,0.093-0.45,0.093h-0.852V1.815h0.963c0.251,0,0.336,0.055,0.364,0.088
					C51.438,1.939,51.488,2.045,51.488,2.356z"/>
			</g>
		</g>
		<g>
			<polygon fill="#FFFFFF" points="27.415,3.523 25.604,5.333 24.383,4.112 23.997,4.501 25.604,6.108 28.104,3.609 27.713,3.218 
							"/>
			<polygon fill="#FFFFFF" points="23.58,3.912 23.666,3.826 23.709,3.783 23.796,3.697 23.882,3.61 23.88,3.609 25.604,1.885 
				26.42,2.701 25.766,3.361 25.144,2.739 24.755,3.127 24.778,3.134 24.795,3.132 24.795,3.134 25.783,4.138 26.924,2.98 
				27.201,2.701 25.596,1.101 23.105,3.609 23.494,3.998 			"/>
			<path fill="#4EA9DE" d="M29.184,2.293c-0.678-1.845-2.755-2.78-4.643-2.088c-1.887,0.692-2.867,2.748-2.191,4.593
				c0.677,1.846,2.755,2.779,4.642,2.088C28.878,6.194,29.859,4.137,29.184,2.293z M23.104,3.609l2.49-2.508l1.603,1.6l-0.281,0.28
				l-1.133,1.158l-0.988-1.004V3.132l-0.017,0.002l-0.015-0.007l0.384-0.388l0.619,0.622l0.655-0.66l-0.817-0.816L23.88,3.609
				l0.002,0.001l-0.086,0.086l-0.087,0.086l-0.043,0.043L23.58,3.912l-0.087,0.086L23.104,3.609z M25.604,6.108l-1.606-1.607
				l0.386-0.39l1.221,1.221l1.812-1.81l0.298-0.305l0.391,0.391L25.604,6.108z"/>
		</g>
		<g>
			<path d="M45.578,6.33v0.316h-0.266V6.33H45.578z"/>
			<path d="M47.13,6.053h0.241l0.001,0.089c0,0.352-0.23,0.528-0.69,0.528c-0.296,0-0.491-0.056-0.586-0.167
				C46,6.392,45.953,6.163,45.953,5.815c0-0.325,0.049-0.546,0.145-0.663c0.098-0.116,0.281-0.175,0.553-0.175
				c0.268,0,0.449,0.04,0.546,0.118c0.098,0.078,0.146,0.226,0.146,0.442h-0.24V5.496c0-0.127-0.031-0.212-0.095-0.254
				c-0.063-0.043-0.188-0.064-0.376-0.064c-0.181,0-0.297,0.04-0.349,0.121c-0.052,0.08-0.078,0.26-0.078,0.54
				c0,0.272,0.029,0.446,0.089,0.521c0.06,0.074,0.197,0.111,0.413,0.111c0.184,0,0.3-0.024,0.35-0.073
				C47.105,6.349,47.13,6.234,47.13,6.053z"/>
			<path d="M48.387,4.978c0.304,0,0.5,0.053,0.591,0.159s0.136,0.334,0.136,0.688c0,0.353-0.045,0.582-0.136,0.688
				S48.69,6.67,48.387,6.67c-0.303,0-0.499-0.053-0.59-0.158s-0.136-0.335-0.136-0.688c0-0.353,0.045-0.582,0.136-0.688
				S48.084,4.978,48.387,4.978z M48.387,5.178c-0.213,0-0.346,0.035-0.396,0.104c-0.053,0.069-0.077,0.25-0.077,0.542
				c0,0.292,0.024,0.473,0.077,0.542c0.05,0.069,0.183,0.104,0.396,0.104c0.214,0,0.347-0.035,0.397-0.104
				c0.051-0.07,0.077-0.25,0.077-0.542c0-0.292-0.026-0.473-0.077-0.542C48.733,5.213,48.601,5.178,48.387,5.178z"/>
			<path d="M49.488,5.003h0.24L49.724,5.25l0.005,0.005C49.821,5.071,50,4.978,50.266,4.978c0.278,0,0.447,0.093,0.507,0.277h0.007
				c0.104-0.184,0.292-0.277,0.565-0.277c0.388,0,0.581,0.198,0.581,0.594v1.074h-0.241V5.549c0-0.145-0.025-0.243-0.077-0.294
				c-0.051-0.051-0.148-0.077-0.292-0.077c-0.19,0-0.319,0.036-0.387,0.107s-0.102,0.208-0.102,0.41v0.95h-0.24V5.572l-0.004-0.076
				c0-0.212-0.121-0.318-0.362-0.318c-0.328,0-0.492,0.178-0.492,0.535v0.933h-0.24V5.003z"/>
		</g>
	</g>
</g>
<g id="delete">
	<polygon points="17,4.858 14.144,2 9.5,6.643 4.857,2 2,4.857 6.643,9.5 2,14.143 4.858,17 9.5,12.357 14.143,17 17,14.143 
		12.357,9.5 	"/>
</g>
</svg>
